<svg width="20.933594" height="20.933975" viewBox="0 0 20.9336 20.934" fill="none" xmlns="http://www.w3.org/2000/svg" xmlns:xlink="http://www.w3.org/1999/xlink">
	<desc>
			Created with Pixso.
	</desc>
	<defs>
		<clipPath id="clip100_400">
			<rect id="ic:round-apartment" width="20.933971" height="20.933971" fill="white" fill-opacity="0"/>
		</clipPath>
	</defs>
	<rect id="ic:round-apartment" width="20.933971" height="20.933971" fill="#FFFFFF" fill-opacity="0"/>
	<g clip-path="url(#clip100_400)">
		<path id="Vector" d="M14.82 9.59L14.82 4.36C14.82 3.4 14.04 2.61 13.08 2.61L7.84 2.61C6.89 2.61 6.1 3.4 6.1 4.36L6.1 6.1L4.36 6.1C3.4 6.1 2.61 6.89 2.61 7.85L2.61 16.57C2.61 17.53 3.4 18.31 4.36 18.31L9.59 18.31L9.59 14.82L11.33 14.82L11.33 18.31L16.57 18.31C17.53 18.31 18.31 17.53 18.31 16.57L18.31 11.33C18.31 10.37 17.53 9.59 16.57 9.59L14.82 9.59ZM6.1 16.57L4.36 16.57L4.36 14.82L6.1 14.82L6.1 16.57ZM6.1 13.08L4.36 13.08L4.36 11.33L6.1 11.33L6.1 13.08ZM6.1 9.59L4.36 9.59L4.36 7.85L6.1 7.85L6.1 9.59ZM9.59 13.08L7.84 13.08L7.84 11.33L9.59 11.33L9.59 13.08ZM9.59 9.59L7.84 9.59L7.84 7.85L9.59 7.85L9.59 9.59ZM9.59 6.1L7.84 6.1L7.84 4.36L9.59 4.36L9.59 6.1ZM13.08 13.08L11.33 13.08L11.33 11.33L13.08 11.33L13.08 13.08ZM13.08 9.59L11.33 9.59L11.33 7.85L13.08 7.85L13.08 9.59ZM13.08 6.1L11.33 6.1L11.33 4.36L13.08 4.36L13.08 6.1ZM16.57 16.57L14.82 16.57L14.82 14.82L16.57 14.82L16.57 16.57ZM16.57 13.08L14.82 13.08L14.82 11.33L16.57 11.33L16.57 13.08Z" fill="#888B97" fill-opacity="1.000000" fill-rule="nonzero"/>
	</g>
</svg>
