<svg width="41" height="41" viewBox="0 0 41 41" fill="none" xmlns="http://www.w3.org/2000/svg">
<path d="M20.1312 40.1673C31.1291 40.1673 40.0446 31.2517 40.0446 20.2539C40.0446 9.25599 31.1291 0.340454 20.1312 0.340454C9.13337 0.340454 0.217834 9.25599 0.217834 20.2539C0.217834 31.2517 9.13337 40.1673 20.1312 40.1673Z" fill="url(#paint0_linear_206_3094)"/>
<path fill-rule="evenodd" clip-rule="evenodd" d="M9.23179 20.0437C15.0369 17.5145 18.908 15.8471 20.8448 15.0415C26.375 12.7413 27.5241 12.3417 28.2731 12.3285C28.4378 12.3256 28.8062 12.3664 29.0447 12.56C29.2462 12.7235 29.3016 12.9443 29.3282 13.0993C29.3547 13.2543 29.3877 13.6074 29.3615 13.8832C29.0618 17.032 27.7651 24.6733 27.1054 28.2C26.8262 29.6922 26.2766 30.1926 25.7445 30.2415C24.5881 30.348 23.7099 29.4773 22.5899 28.7431C20.8373 27.5942 19.8471 26.8791 18.1459 25.758C16.1798 24.4624 17.4543 23.7503 18.5748 22.5865C18.868 22.2819 23.9632 17.6475 24.0618 17.2271C24.0741 17.1745 24.0856 16.9785 23.9692 16.875C23.8527 16.7715 23.6809 16.8069 23.5569 16.8351C23.3811 16.875 20.5812 18.7256 15.1573 22.3869C14.3625 22.9326 13.6427 23.1985 12.9977 23.1846C12.2867 23.1692 10.919 22.7825 9.90228 22.452C8.6552 22.0467 7.66405 21.8323 7.75036 21.1439C7.79531 20.7853 8.28912 20.4186 9.23179 20.0437Z" fill="white"/>
<defs>
<linearGradient id="paint0_linear_206_3094" x1="20.1312" y1="0.340454" x2="20.1312" y2="39.8719" gradientUnits="userSpaceOnUse">
<stop stop-color="#2AABEE"/>
<stop offset="1" stop-color="#229ED9"/>
</linearGradient>
</defs>
</svg>
