<svg width="19.229492" height="19.229858" viewBox="0 0 19.2295 19.2299" fill="none" xmlns="http://www.w3.org/2000/svg" xmlns:xlink="http://www.w3.org/1999/xlink">
	<desc>
			Created with Pixso.
	</desc>
	<defs/>
	<path id="Subtract" d="M8.01172 1.60229L9.61426 1.60229L9.61426 5.69128L9.89355 7.35266L10.2734 7.73267L11.9346 8.01208L16.0244 8.01208L16.0244 12.8197C16.0244 15.0859 16.0244 16.2191 15.3203 16.9231C14.6162 17.6272 13.4824 17.6272 11.2168 17.6272L8.01172 17.6272C5.74512 17.6272 4.6123 17.6272 3.9082 16.9231C3.2041 16.2191 3.2041 15.0859 3.2041 12.8197L3.2041 6.40979C3.2041 4.14343 3.2041 3.01038 3.9082 2.30627C4.6123 1.60229 5.74512 1.60229 8.01172 1.60229ZM15.9023 5.65906C15.9863 5.86157 16.0117 6.07983 16.0205 6.40955L12.0693 6.40955L11.3398 6.28687L11.2168 5.5575L11.2168 1.60596C11.5469 1.61414 11.7646 1.64038 11.9668 1.72424C12.2617 1.84631 12.4932 2.07788 12.9561 2.54102L15.085 4.6698C15.5488 5.13293 15.7803 5.3645 15.9023 5.65906ZM12.0176 9.6145L7.20996 9.6145C6.76172 9.6145 6.40918 9.96704 6.40918 10.4158C6.40918 10.8645 6.76172 11.217 7.20996 11.217L12.0176 11.217C12.4668 11.217 12.8193 10.8645 12.8193 10.4158C12.8193 9.96704 12.4668 9.6145 12.0176 9.6145ZM7.20996 12.8195L10.415 12.8195C10.8643 12.8195 11.2168 13.172 11.2168 13.6207C11.2168 14.0695 10.8643 14.422 10.415 14.422L7.20996 14.422C6.76172 14.422 6.40918 14.0695 6.40918 13.6207C6.40918 13.172 6.76172 12.8195 7.20996 12.8195Z" clip-rule="evenodd" fill="#888B97" fill-opacity="1.000000" fill-rule="evenodd"/>
</svg>
