<svg width="23" height="23" viewBox="0 0 23 23" fill="none" xmlns="http://www.w3.org/2000/svg">
<path d="M18.3742 3.94995H5.4242C4.68822 3.94995 3.98239 4.24232 3.46198 4.76273C2.94157 5.28314 2.6492 5.98898 2.6492 6.72495V15.975C2.6492 16.7109 2.94157 17.4168 3.46198 17.9372C3.98239 18.4576 4.68822 18.75 5.4242 18.75H18.3742C19.1102 18.75 19.816 18.4576 20.3364 17.9372C20.8568 17.4168 21.1492 16.7109 21.1492 15.975V6.72495C21.1492 5.98898 20.8568 5.28314 20.3364 4.76273C19.816 4.24232 19.1102 3.94995 18.3742 3.94995V3.94995ZM18.3742 5.79995L12.3617 9.9347C12.2211 10.0159 12.0616 10.0586 11.8992 10.0586C11.7368 10.0586 11.5773 10.0159 11.4367 9.9347L5.4242 5.79995H18.3742Z" fill="#FB9218"/>
</svg>
