<svg width="33.000000" height="33.000000" viewBox="0 0 33 33" fill="none" xmlns="http://www.w3.org/2000/svg" xmlns:xlink="http://www.w3.org/1999/xlink">
	<desc>
			Created with Pixso.
	</desc>
	<defs>
		<clipPath id="clip101_1462">
			<rect id="Frame" width="32.117645" height="32.117645" transform="translate(-0.058838 0.000000)" fill="white" fill-opacity="0"/>
		</clipPath>
	</defs>
	<rect id="Frame" width="32.117645" height="32.117645" transform="translate(-0.058838 0.000000)" fill="#FFFFFF" fill-opacity="0"/>
	<g clip-path="url(#clip101_1462)">
		<path id="Vector" d="M28.04 26.77C28.04 27.5 27.44 28.1 26.71 28.1L20.57 28.1L20.57 18.77L23.7 18.77L24.17 15.13L20.57 15.13L20.57 12.81C20.57 11.76 20.86 11.04 22.37 11.04L24.3 11.04L24.3 7.79C23.97 7.75 22.82 7.65 21.49 7.65C18.72 7.65 16.82 9.34 16.82 12.45L16.82 15.13L13.68 15.13L13.68 18.77L16.82 18.77L16.82 28.1L5.28 28.1C4.55 28.1 3.95 27.5 3.95 26.77L3.95 5.34C3.95 4.6 4.55 4.01 5.28 4.01L26.71 4.01C27.44 4.01 28.04 4.6 28.04 5.34L28.04 26.77Z" fill="#FFFFFF" fill-opacity="1.000000" fill-rule="evenodd"/>
	</g>
</svg>
