<svg width="20.000000" height="20.000000" viewBox="0 0 20 20" fill="none" xmlns="http://www.w3.org/2000/svg" xmlns:xlink="http://www.w3.org/1999/xlink">
	<desc>
			Created with Pixso.
	</desc>
	<defs>
		<clipPath id="clip100_343">
			<rect id="Frame" width="20.000000" height="20.000000" fill="white" fill-opacity="0"/>
		</clipPath>
	</defs>
	<rect id="Frame" width="20.000000" height="20.000000" fill="#FFFFFF" fill-opacity="0"/>
	<g clip-path="url(#clip100_343)">
		<path id="Vector" d="M8.77 13.79L14.66 7.89L13.7 6.95L8.77 11.89L6.27 9.39L5.33 10.33L8.77 13.79ZM10 18.33C8.86 18.33 7.78 18.11 6.77 17.67C5.75 17.23 4.87 16.64 4.11 15.88C3.35 15.12 2.76 14.24 2.32 13.22C1.88 12.21 1.66 11.13 1.66 10C1.66 8.84 1.88 7.76 2.32 6.75C2.76 5.73 3.35 4.85 4.11 4.1C4.87 3.35 5.75 2.76 6.77 2.32C7.78 1.88 8.86 1.66 10 1.66C11.15 1.66 12.23 1.88 13.25 2.32C14.26 2.76 15.14 3.35 15.89 4.1C16.64 4.85 17.24 5.73 17.67 6.75C18.11 7.76 18.33 8.84 18.33 10C18.33 11.13 18.11 12.21 17.67 13.22C17.24 14.24 16.64 15.12 15.89 15.88C15.14 16.64 14.26 17.23 13.25 17.67C12.23 18.11 11.15 18.33 10 18.33Z" fill="#39CC6A" fill-opacity="1.000000" fill-rule="nonzero"/>
	</g>
</svg>
