<svg width="18.434570" height="18.434341" viewBox="0 0 18.4346 18.4343" fill="none" xmlns="http://www.w3.org/2000/svg" xmlns:xlink="http://www.w3.org/1999/xlink">
	<desc>
			Created with Pixso.
	</desc>
	<defs>
		<clipPath id="clip100_366">
			<rect id="Frame" width="18.434343" height="18.434343" fill="white" fill-opacity="0"/>
		</clipPath>
	</defs>
	<rect id="Frame" width="18.434343" height="18.434343" fill="#FFFFFF" fill-opacity="0"/>
	<g clip-path="url(#clip100_366)">
		<path id="Vector" d="M12.67 2.3C11.33 2.3 10.05 2.92 9.21 3.9C8.37 2.92 7.09 2.3 5.76 2.3C3.39 2.3 1.53 4.16 1.53 6.52C1.53 9.43 4.14 11.79 8.1 15.39L9.21 16.39L10.33 15.38C14.28 11.79 16.89 9.43 16.89 6.52C16.89 4.16 15.03 2.3 12.67 2.3ZM9.29 14.24L9.21 14.32L9.14 14.24C5.48 10.93 3.07 8.74 3.07 6.52C3.07 4.99 4.22 3.84 5.76 3.84C6.94 3.84 8.09 4.6 8.5 5.65L9.93 5.65C10.33 4.6 11.49 3.84 12.67 3.84C14.21 3.84 15.36 4.99 15.36 6.52C15.36 8.74 12.95 10.93 9.29 14.24Z" fill="#9E9E9E" fill-opacity="1.000000" fill-rule="nonzero"/>
		<path id="Vector" d="M9.21 16.39L8.1 15.38C4.14 11.79 1.53 9.43 1.53 6.52C1.53 4.16 3.39 2.3 5.76 2.3C7.09 2.3 8.37 2.92 9.21 3.9C10.05 2.92 11.33 2.3 12.67 2.3C15.03 2.3 16.89 4.16 16.89 6.52C16.89 9.43 14.28 11.79 10.33 15.39L9.21 16.39Z" fill="#9E9E9E" fill-opacity="1.000000" fill-rule="nonzero"/>
	</g>
</svg>
