<svg width="20.933594" height="20.933975" viewBox="0 0 20.9336 20.934" fill="none" xmlns="http://www.w3.org/2000/svg" xmlns:xlink="http://www.w3.org/1999/xlink">
	<desc>
			Created with Pixso.
	</desc>
	<defs>
		<clipPath id="clip100_396">
			<rect id="ph:house-fill" width="20.933971" height="20.933971" fill="white" fill-opacity="0"/>
		</clipPath>
	</defs>
	<rect id="ph:house-fill" width="20.933971" height="20.933971" fill="#FFFFFF" fill-opacity="0"/>
	<g clip-path="url(#clip100_396)">
		<path id="Vector" d="M18.31 9.44L18.31 17C18.31 17.24 18.25 17.47 18.13 17.68C18 17.88 17.83 18.05 17.62 18.16C17.43 18.26 17.22 18.31 17.01 18.31L13.08 18.31C12.9 18.31 12.74 18.24 12.61 18.12C12.49 18 12.42 17.83 12.42 17.66L12.42 13.73C12.42 13.56 12.35 13.39 12.23 13.27C12.11 13.15 11.94 13.08 11.77 13.08L9.15 13.08C8.98 13.08 8.81 13.15 8.69 13.27C8.57 13.39 8.5 13.56 8.5 13.73L8.5 17.66C8.5 17.83 8.43 18 8.31 18.12C8.18 18.24 8.02 18.31 7.84 18.31L3.92 18.31C3.74 18.31 3.55 18.27 3.38 18.2C3.21 18.12 3.06 18.01 2.94 17.87C2.73 17.62 2.61 17.3 2.61 16.97L2.61 9.44C2.61 9.26 2.65 9.08 2.72 8.91C2.8 8.75 2.91 8.6 3.04 8.47L9.58 2.53C9.82 2.31 10.14 2.18 10.46 2.18C10.79 2.18 11.1 2.31 11.34 2.53L17.88 8.47C18.02 8.6 18.13 8.75 18.2 8.91C18.27 9.08 18.31 9.26 18.31 9.44Z" fill="#888B97" fill-opacity="1.000000" fill-rule="nonzero"/>
	</g>
</svg>
