<svg width="32.000000" height="33.000000" viewBox="0 0 32 33" fill="none" xmlns="http://www.w3.org/2000/svg" xmlns:xlink="http://www.w3.org/1999/xlink">
	<desc>
			Created with Pixso.
	</desc>
	<defs>
		<clipPath id="clip101_1464">
			<rect id="Frame" width="32.117645" height="32.117645" transform="translate(-0.117676 0.000000)" fill="white" fill-opacity="0"/>
		</clipPath>
	</defs>
	<rect id="Frame" width="32.117645" height="32.117645" transform="translate(-0.117676 0.000000)" fill="#FFFFFF" fill-opacity="0"/>
	<g clip-path="url(#clip101_1464)">
		<path id="Vector" d="M15.94 6.18C19.15 6.18 19.53 6.19 20.8 6.25C21.98 6.3 22.62 6.5 23.04 6.66C23.6 6.88 24 7.14 24.42 7.57C24.85 7.99 25.11 8.39 25.33 8.95C25.49 9.37 25.69 10.01 25.74 11.19C25.8 12.46 25.81 12.84 25.81 16.05C25.81 19.27 25.8 19.65 25.74 20.92C25.69 22.09 25.49 22.73 25.33 23.16C25.11 23.72 24.85 24.12 24.42 24.54C24 24.96 23.6 25.22 23.04 25.44C22.62 25.61 21.98 25.8 20.8 25.86C19.53 25.92 19.15 25.93 15.94 25.93C12.72 25.93 12.34 25.92 11.07 25.86C9.9 25.8 9.26 25.61 8.83 25.44C8.31 25.25 7.84 24.94 7.45 24.54C7.05 24.15 6.74 23.68 6.55 23.16C6.38 22.73 6.19 22.09 6.13 20.92C6.07 19.65 6.06 19.27 6.06 16.05C6.06 12.84 6.07 12.46 6.13 11.19C6.19 10.01 6.38 9.37 6.55 8.95C6.77 8.39 7.03 7.99 7.45 7.57C7.87 7.14 8.27 6.88 8.83 6.66C9.26 6.5 9.9 6.3 11.07 6.25C12.34 6.19 12.72 6.18 15.94 6.18ZM15.94 4.01C12.67 4.01 12.26 4.02 10.97 4.08C9.69 4.14 8.81 4.34 8.05 4.64C7.24 4.94 6.51 5.42 5.91 6.03C5.24 6.7 4.83 7.37 4.52 8.16C4.23 8.93 4.02 9.8 3.96 11.09C3.91 12.37 3.89 12.78 3.89 16.05C3.89 19.32 3.91 19.73 3.96 21.02C4.02 22.3 4.23 23.18 4.52 23.94C4.83 24.74 5.24 25.41 5.91 26.08C6.58 26.75 7.26 27.16 8.05 27.47C8.81 27.76 9.69 27.97 10.97 28.03C12.26 28.08 12.67 28.1 15.94 28.1C19.21 28.1 19.62 28.08 20.9 28.03C22.18 27.97 23.06 27.76 23.83 27.47C24.63 27.16 25.36 26.69 25.96 26.08C26.63 25.41 27.04 24.74 27.35 23.94C27.65 23.18 27.85 22.3 27.91 21.02C27.97 19.74 27.98 19.32 27.98 16.05C27.98 12.78 27.97 12.37 27.91 11.09C27.85 9.81 27.65 8.93 27.35 8.17C27.05 7.36 26.57 6.63 25.96 6.03C25.29 5.36 24.62 4.95 23.83 4.64C23.06 4.34 22.19 4.14 20.9 4.08C19.62 4.02 19.21 4.01 15.94 4.01ZM15.94 9.87C14.3 9.87 12.72 10.52 11.56 11.68C10.4 12.84 9.75 14.41 9.75 16.05C9.75 17.69 10.4 19.27 11.56 20.43C12.72 21.59 14.3 22.24 15.94 22.24C17.58 22.24 19.15 21.59 20.31 20.43C21.47 19.27 22.12 17.69 22.12 16.05C22.12 14.41 21.47 12.84 20.31 11.68C19.15 10.52 17.58 9.87 15.94 9.87ZM15.94 20.07C14.87 20.07 13.85 19.65 13.1 18.89C12.34 18.14 11.92 17.12 11.92 16.05C11.92 14.99 12.34 13.97 13.1 13.22C13.85 12.46 14.87 12.04 15.94 12.04C17 12.04 18.02 12.46 18.78 13.22C19.53 13.97 19.95 14.99 19.95 16.05C19.95 17.12 19.53 18.14 18.78 18.89C18.02 19.65 17 20.07 15.94 20.07ZM23.81 9.63C23.81 9.81 23.77 10 23.7 10.18C23.63 10.35 23.52 10.51 23.39 10.65C23.25 10.78 23.09 10.89 22.92 10.96C22.74 11.03 22.55 11.07 22.37 11.07C22.18 11.07 21.99 11.03 21.81 10.96C21.64 10.89 21.48 10.78 21.34 10.65C21.21 10.51 21.1 10.35 21.03 10.18C20.96 10 20.92 9.81 20.92 9.63C20.92 9.24 21.07 8.87 21.34 8.6C21.61 8.33 21.98 8.18 22.37 8.18C22.75 8.18 23.12 8.33 23.39 8.6C23.66 8.87 23.81 9.24 23.81 9.63Z" fill="#FFFFFF" fill-opacity="1.000000" fill-rule="nonzero"/>
	</g>
</svg>
