<svg width="232.000000" height="234.000000" viewBox="0 0 232 234" fill="none" xmlns="http://www.w3.org/2000/svg" xmlns:xlink="http://www.w3.org/1999/xlink">
	<desc>
			Created with Pixso.
	</desc>
	<defs>
		<clipPath id="clip100_769">
			<rect id="IMAGE" width="232.000000" height="234.000000" fill="white" fill-opacity="0"/>
		</clipPath>
	</defs>
	<g clip-path="url(#clip100_769)">
		<path id="Vector" d="M97.7 121.66L168.65 85.72L168.86 86.18L170.4 89.46L176.22 86.51L186.76 81.17L198.22 105.75L212.95 137.28L219.97 152.23L132.64 196.47L108.88 145.61L107.8 143.24L98.38 123.07L97.7 121.66Z" fill="#E9EFF2" fill-opacity="1.000000" fill-rule="nonzero"/>
		<path id="Vector" d="M16.1 90.81L29.93 83.8L23.28 69.56L137.46 11.02L139.15 14.69L161.39 62.26L168.71 77.94L170.59 81.89L167.57 83.42L94.4 120.49L94.8 121.35L69.08 127.07L69.85 126.68L70.19 126.51L63.36 111.92L62.83 110.77L32.58 126.09L16.1 90.81Z" fill="#E4D7CF" fill-opacity="1.000000" fill-rule="nonzero"/>
		<path id="Vector" d="M58.5 172.52L71.53 165.99L90.9 156.17L107.21 147.88L130.44 197.59L86.74 219.72L83.33 212.42L84.95 211.6L78.63 198.07L72.38 201.23L72 201.42L58.5 172.52Z" fill="#D6EBF3" fill-opacity="1.000000" fill-rule="nonzero"/>
		<path id="Vector" d="M25.83 132.35L31.45 129.51L61.69 114.19L67.97 127.63L68.31 127.46L69.08 127.07L94.8 121.35L94.93 121.64L96.11 124.22L105.54 144.39L106.11 145.58L89.8 153.81L70.43 163.63L56.27 170.84L46.2 175.93L43.65 170.41L32.9 147.39L25.83 132.35Z" fill="#E9EFF2" fill-opacity="1.000000" fill-rule="nonzero"/>
		<path id="Vector" d="M2.91 74.3L142.1 2.94L146 11.22L143.35 12.56L142.58 12.95L141.98 13.26L141.81 13.35L139.15 14.69L137.46 11.02L23.28 69.56L29.93 83.8L16.1 90.81L32.58 126.09L62.83 110.77L63.36 111.92L70.19 126.51L69.85 126.68L69.08 127.07L68.31 127.47L67.97 127.63L61.69 114.19L31.45 129.51L25.83 132.35L32.9 147.39L30.76 148.48L29.91 148.9L29.21 149.26L27.07 150.35L18.98 132.98L28.16 128.32L11.68 93.05L2.91 74.3Z" fill="#FFFFFF" fill-opacity="1.000000" fill-rule="nonzero"/>
		<path id="Vector" d="M37.82 173.36L39.96 172.28L40.66 171.92L41.51 171.49L43.65 170.41L46.2 175.93L56.26 170.84L70.43 163.63L70.6 164L70.98 164.81L71.36 165.61L71.53 165.99L58.5 172.52L72 201.42L72.38 201.23L78.63 198.07L84.95 211.6L83.33 212.42L86.74 219.72L130.44 197.59L107.21 147.88L90.9 156.17L90.72 155.8L90.35 154.99L89.97 154.19L89.8 153.81L106.11 145.58L105.54 144.39L105.9 144.2L106.67 143.81L107.44 143.42L107.8 143.24L108.88 145.61L132.64 196.47L219.97 152.23L212.95 137.28L215.15 136.17L215.54 135.97L215.92 135.78L216.69 135.39L218.89 134.28L229.08 156.15L134.76 203.93L81.59 230.87L74.95 216.66L68.63 203.14L55.4 174.83L41.77 181.74L37.82 173.36Z" fill="#FFFFFF" fill-opacity="1.000000" fill-rule="nonzero"/>
		<path id="Vector" d="M94.4 120.49L167.58 83.42L170.59 81.89L168.71 77.94L171.36 76.6L171.54 76.51L172.14 76.21L172.91 75.81L175.56 74.47L177.39 78.44L186.51 73.83L189.82 72.15L190.36 73.3L204.15 102.75L201.96 103.86L201.19 104.25L200.81 104.44L200.41 104.64L198.22 105.75L186.76 81.17L176.22 86.51L170.4 89.46L168.86 86.18L168.65 85.72L97.7 121.66L98.38 123.07L98.02 123.25L97.24 123.64L96.47 124.03L96.11 124.22L94.93 121.64L94.8 121.35L94.4 120.49Z" fill="#FFFFFF" fill-opacity="1.000000" fill-rule="nonzero"/>
		<path id="Vector" d="M70.43 163.63L89.8 153.81L89.97 154.19L90.35 154.99L90.72 155.8L90.9 156.17L71.53 165.99L71.36 165.61L70.98 164.81L70.6 164L70.43 163.63ZM96.11 124.22L96.47 124.03L97.24 123.64L98.02 123.25L98.38 123.07L107.8 143.24L107.44 143.42L106.67 143.81L105.9 144.2L105.54 144.39L96.11 124.22ZM27.07 150.35L29.21 149.26L29.91 148.9L30.76 148.48L32.9 147.39L43.65 170.41L41.51 171.49L40.66 171.92L39.96 172.28L37.82 173.36L27.07 150.35Z" fill="#C3CFD5" fill-opacity="1.000000" fill-rule="nonzero"/>
		<path id="Vector" d="M139.15 14.69L141.81 13.35L141.98 13.26L142.58 12.95L143.35 12.56L146 11.22L168.23 58.79L175.56 74.47L172.91 75.81L172.14 76.21L171.54 76.51L171.36 76.6L168.71 77.94L161.39 62.26L139.15 14.69ZM198.22 105.75L200.41 104.64L200.81 104.44L201.19 104.25L201.96 103.86L204.15 102.75L218.89 134.28L216.69 135.39L215.92 135.78L215.54 135.97L215.15 136.17L212.95 137.28L198.22 105.75Z" fill="#A5CFDF" fill-opacity="1.000000" fill-rule="nonzero"/>
	</g>
</svg>
