<svg width="23" height="23" viewBox="0 0 23 23" fill="none" xmlns="http://www.w3.org/2000/svg">
<path d="M6.92272 10.3559C8.25472 12.9736 10.4007 15.1104 13.0185 16.4516L15.0535 14.4166C15.3032 14.1669 15.6732 14.0836 15.997 14.1946C17.033 14.5369 18.1522 14.7219 19.2992 14.7219C19.808 14.7219 20.2242 15.1381 20.2242 15.6469V18.8751C20.2242 19.3839 19.808 19.8001 19.2992 19.8001C10.6135 19.8001 3.57422 12.7609 3.57422 4.07515C3.57422 3.5664 3.99047 3.15015 4.49922 3.15015H7.73672C8.24547 3.15015 8.66172 3.5664 8.66172 4.07515C8.66172 5.2314 8.84672 6.3414 9.18897 7.3774C9.29072 7.70115 9.21672 8.0619 8.95772 8.3209L6.92272 10.3559Z" fill="#FB9218"/>
</svg>
