<svg width="20.933594" height="20.933975" viewBox="0 0 20.9336 20.934" fill="none" xmlns="http://www.w3.org/2000/svg" xmlns:xlink="http://www.w3.org/1999/xlink">
	<desc>
			Created with Pixso.
	</desc>
	<defs>
		<clipPath id="clip100_404">
			<rect id="ic:round-villa" width="20.933971" height="20.933971" fill="white" fill-opacity="0"/>
		</clipPath>
	</defs>
	<rect id="ic:round-villa" width="20.933971" height="20.933971" fill="#FFFFFF" fill-opacity="0"/>
	<g clip-path="url(#clip100_404)">
		<path id="Vector" d="M6.1 18.31L3.48 18.31C3 18.31 2.61 17.92 2.61 17.44L2.61 7.57C2.61 7.21 2.83 6.89 3.17 6.75L12.77 3.07C12.9 3.01 13.04 3 13.18 3.01C13.32 3.03 13.46 3.08 13.58 3.16C13.69 3.24 13.79 3.35 13.85 3.48C13.92 3.6 13.95 3.74 13.95 3.89L13.95 8.72L6.97 8.72C6.49 8.72 6.1 9.11 6.1 9.59L6.1 18.31ZM14.82 10.46L8.72 10.46C8.24 10.46 7.85 10.85 7.85 11.33L7.85 17.44C7.85 17.92 8.24 18.31 8.72 18.31L12.21 18.31L12.21 14.82C12.21 14.34 12.6 13.95 13.08 13.95C13.56 13.95 13.95 14.34 13.95 14.82L13.95 18.31L17.44 18.31C17.92 18.31 18.31 17.92 18.31 17.44L18.31 10.46C18.31 9.5 17.53 8.72 16.57 8.72C15.61 8.72 14.82 9.5 14.82 10.46Z" fill="#888B97" fill-opacity="1.000000" fill-rule="nonzero"/>
	</g>
</svg>
