<svg width="20.000000" height="20.000000" viewBox="0 0 20 20" fill="none" xmlns="http://www.w3.org/2000/svg" xmlns:xlink="http://www.w3.org/1999/xlink">
	<desc>
			Created with Pixso.
	</desc>
	<defs>
		<clipPath id="clip100_346">
			<rect id="Frame" width="20.000000" height="20.000000" fill="white" fill-opacity="0"/>
		</clipPath>
	</defs>
	<rect id="Frame" width="20.000000" height="20.000000" fill="#FFFFFF" fill-opacity="0"/>
	<g clip-path="url(#clip100_346)">
		<mask id="mask100_348" mask-type="alpha" maskUnits="userSpaceOnUse" x="0.000000" y="0.000000" width="20.000000" height="20.000000">
			<path id="Vector" d="M0 0L20 0L20 20L0 20L0 0Z" fill="#000000" fill-opacity="1.000000" fill-rule="evenodd"/>
		</mask>
		<g mask="url(#mask100_348)">
			<path id="Vector" d="M10 4.99L10 6.49C10 6.86 10.44 7.04 10.7 6.78L13.03 4.45C13.19 4.29 13.19 4.03 13.03 3.86L10.7 1.54C10.44 1.28 10 1.46 10 1.84L10 3.33C6.31 3.33 3.33 6.31 3.33 9.99C3.33 10.86 3.5 11.69 3.8 12.45C4.03 13.01 4.75 13.16 5.17 12.74C5.39 12.51 5.49 12.17 5.36 11.87C5.12 11.29 5 10.65 5 9.99C5 7.24 7.24 4.99 10 4.99ZM14.82 7.25C14.59 7.48 14.5 7.83 14.63 8.12C14.86 8.7 15 9.34 15 9.99C15 12.75 12.75 14.99 10 14.99L10 13.5C10 13.13 9.54 12.94 9.29 13.21L6.96 15.54C6.79 15.7 6.79 15.96 6.96 16.13L9.29 18.45C9.54 18.71 10 18.53 10 18.16L10 16.66C13.68 16.66 16.66 13.68 16.66 9.99C16.66 9.13 16.5 8.29 16.19 7.54C15.96 6.98 15.25 6.83 14.82 7.25Z" fill="#FF9800" fill-opacity="1.000000" fill-rule="nonzero"/>
		</g>
	</g>
</svg>
