<svg width="20.000000" height="20.000000" viewBox="0 0 20 20" fill="none" xmlns="http://www.w3.org/2000/svg" xmlns:xlink="http://www.w3.org/1999/xlink">
	<desc>
			Created with Pixso.
	</desc>
	<defs>
		<clipPath id="clip100_1147">
			<rect id="material-symbols:share" width="20.000000" height="20.000000" fill="white" fill-opacity="0"/>
		</clipPath>
	</defs>
	<rect id="material-symbols:share" width="20.000000" height="20.000000" fill="#FFFFFF" fill-opacity="0"/>
	<g clip-path="url(#clip100_1147)">
		<path id="Vector" d="M15 18.33C14.3 18.33 13.71 18.09 13.22 17.6C12.74 17.11 12.5 16.52 12.5 15.83C12.5 15.73 12.5 15.63 12.52 15.53C12.53 15.42 12.55 15.33 12.58 15.25L6.7 11.83C6.47 12.04 6.2 12.2 5.91 12.32C5.62 12.44 5.31 12.5 5 12.5C4.3 12.5 3.71 12.25 3.22 11.77C2.74 11.28 2.5 10.69 2.5 10C2.5 9.3 2.74 8.71 3.22 8.22C3.71 7.74 4.3 7.5 5 7.5C5.31 7.5 5.62 7.55 5.91 7.67C6.2 7.79 6.47 7.95 6.7 8.16L12.58 4.75C12.55 4.66 12.53 4.57 12.52 4.46C12.5 4.36 12.5 4.26 12.5 4.16C12.5 3.47 12.74 2.88 13.22 2.39C13.71 1.9 14.3 1.66 15 1.66C15.69 1.66 16.28 1.9 16.77 2.39C17.25 2.88 17.5 3.47 17.5 4.16C17.5 4.86 17.25 5.45 16.77 5.93C16.28 6.42 15.69 6.66 15 6.66C14.68 6.66 14.37 6.6 14.08 6.48C13.79 6.37 13.52 6.2 13.29 6L7.41 9.41C7.44 9.5 7.46 9.59 7.47 9.69C7.49 9.8 7.5 9.9 7.5 10C7.5 10.09 7.49 10.19 7.47 10.3C7.46 10.4 7.44 10.5 7.41 10.58L13.29 14C13.52 13.79 13.79 13.62 14.08 13.51C14.37 13.39 14.68 13.33 15 13.33C15.69 13.33 16.28 13.57 16.77 14.06C17.25 14.54 17.5 15.13 17.5 15.83C17.5 16.52 17.25 17.11 16.77 17.6C16.28 18.09 15.69 18.33 15 18.33Z" fill="#888B97" fill-opacity="1.000000" fill-rule="nonzero"/>
	</g>
</svg>
