<svg width="33.000000" height="33.000000" viewBox="0 0 33 33" fill="none" xmlns="http://www.w3.org/2000/svg" xmlns:xlink="http://www.w3.org/1999/xlink">
	<desc>
			Created with Pixso.
	</desc>
	<defs>
		<clipPath id="clip101_1459">
			<rect id="Frame" width="32.117645" height="32.117645" fill="white" fill-opacity="0"/>
		</clipPath>
	</defs>
	<rect id="Frame" width="32.117645" height="32.117645" fill="#FFFFFF" fill-opacity="0"/>
	<g clip-path="url(#clip101_1459)">
		<path id="Vector" d="M16.05 2.67C8.67 2.67 2.67 8.67 2.67 16.05C2.67 23.44 8.67 29.44 16.05 29.44C23.44 29.44 29.44 23.44 29.44 16.05C29.44 8.67 23.44 2.67 16.05 2.67ZM14.72 26.67C9.43 26.01 5.35 21.51 5.35 16.05C5.35 15.22 5.46 14.43 5.63 13.66L12.04 20.07L12.04 21.41C12.04 22.88 13.24 24.08 14.72 24.08L14.72 26.67ZM23.95 23.27C23.6 22.18 22.61 21.41 21.41 21.41L20.07 21.41L20.07 17.39C20.07 16.66 19.47 16.05 18.73 16.05L10.7 16.05L10.7 13.38L13.38 13.38C14.11 13.38 14.72 12.78 14.72 12.04L14.72 9.36L17.39 9.36C18.86 9.36 20.07 8.16 20.07 6.69L20.07 6.14C23.99 7.73 26.76 11.57 26.76 16.05C26.76 18.84 25.69 21.37 23.95 23.27Z" fill="#FFFFFF" fill-opacity="1.000000" fill-rule="nonzero"/>
	</g>
</svg>
